<svg xmlns="http://www.w3.org/2000/svg" viewBox="0 0 120 120"><defs><radialGradient id="f" cx="38%" cy="30%" r="75%"><stop offset="0" stop-color="#d6f8e5"/><stop offset=".55" stop-color="#5fd593"/><stop offset="1" stop-color="#1c8a4a"/></radialGradient></defs><circle cx="60" cy="64" r="52" fill="#000" opacity=".12"/><circle cx="60" cy="58" r="52" fill="url(#f)" stroke="#13703a" stroke-width="3"/><path id="h" d="M42 62c-12-8-14-18-7-22 4-2 7 0 7 4 0-4 3-6 7-4 7 4 5 14-7 22z" fill="#ff3d6e" stroke="#c81e4f" stroke-width="1.5"/><use href="#h" x="36"/><circle cx="37" cy="46" r="2.2" fill="#fff" opacity=".85"/><circle cx="73" cy="46" r="2.2" fill="#fff" opacity=".85"/><path d="M26 70c4 26 64 26 68 0z" fill="#0e3a6b"/><path d="M34 70h52c-1 4-3 6-5 8H39c-2-2-4-4-5-8z" fill="#fff"/><path d="M42 85c10 7 26 7 36 0c-10-5-26-5-36 0z" fill="#ff8aa8"/><circle cx="24" cy="68" r="7" fill="#ff8aa8" opacity=".6"/><circle cx="96" cy="68" r="7" fill="#ff8aa8" opacity=".6"/></svg>
